<svg xmlns="http://www.w3.org/2000/svg" style="display:none">
  <symbol id="bars-3" viewBox="0 0 24 24"><path d="M3.75 6.75h16.5M3.75 12h16.5m-16.5 5.25h16.5"/></symbol>
  <symbol id="x-mark" viewBox="0 0 24 24"><path d="M6 18 18 6M6 6l12 12"/></symbol>
  <symbol id="plus" viewBox="0 0 24 24"><path d="M12 4.5v15m7.5-7.5h-15"/></symbol>
  <symbol id="home" viewBox="0 0 24 24"><path d="m2.25 12 8.954-8.955c.44-.439 1.152-.439 1.591 0L21.75 12M4.5 9.75V21h6.75v-6.75h1.5V21h6.75V9.75"/></symbol>
  <symbol id="building-office-2" viewBox="0 0 24 24"><path d="M3.75 21V5.25A2.25 2.25 0 0 1 6 3h7.5a2.25 2.25 0 0 1 2.25 2.25V21M3 21h18M8.25 6.75h3M8.25 10.5h3M8.25 14.25h3M15.75 9.75H18A2.25 2.25 0 0 1 20.25 12v9"/></symbol>
  <symbol id="users" viewBox="0 0 24 24"><path d="M18 18.72a9.094 9.094 0 0 0 3.741-.479 3 3 0 0 0-4.682-2.72M18 18.72c0-1.217-.436-2.33-1.16-3.196M18 18.72A9.06 9.06 0 0 1 12 21c-2.307 0-4.413-.862-6-2.28M15 11.25a3 3 0 1 0-6 0 3 3 0 0 0 6 0ZM6.941 15.52A3 3 0 0 0 2.26 18.24 9.094 9.094 0 0 0 6 18.72"/></symbol>
  <symbol id="user" viewBox="0 0 24 24"><path d="M15.75 6a3.75 3.75 0 1 1-7.5 0 3.75 3.75 0 0 1 7.5 0ZM4.5 21a7.5 7.5 0 0 1 15 0"/></symbol>
  <symbol id="cube" viewBox="0 0 24 24"><path d="m21 7.5-9-5.25L3 7.5m18 0-9 5.25m9-5.25v9L12 21.75m0-9L3 7.5m9 5.25v9M3 7.5v9l9 5.25"/></symbol>
  <symbol id="clipboard-document-list" viewBox="0 0 24 24"><path d="M9 5.25H6.375A2.625 2.625 0 0 0 3.75 7.875v10.5A2.625 2.625 0 0 0 6.375 21h11.25a2.625 2.625 0 0 0 2.625-2.625V7.875a2.625 2.625 0 0 0-2.625-2.625H15M9 5.25a3 3 0 0 1 6 0M9 5.25V6h6v-.75M8.25 12h7.5M8.25 15.75h7.5"/></symbol>
  <symbol id="wallet" viewBox="0 0 24 24"><path d="M21 12.75v6A2.25 2.25 0 0 1 18.75 21H5.25A2.25 2.25 0 0 1 3 18.75V6.75A2.25 2.25 0 0 1 5.25 4.5H18a1.5 1.5 0 0 1 0 3H6.75A1.5 1.5 0 0 0 5.25 9a1.5 1.5 0 0 0 1.5 1.5h12A2.25 2.25 0 0 1 21 12.75Zm-4.5 2.25h.008v.008H16.5V15Z"/></symbol>
  <symbol id="document-chart-bar" viewBox="0 0 24 24"><path d="M14.25 2.25H6.375A2.625 2.625 0 0 0 3.75 4.875v14.25a2.625 2.625 0 0 0 2.625 2.625h11.25a2.625 2.625 0 0 0 2.625-2.625V8.25l-6-6Zm0 0V8.25h6M8.25 17.25v-3M12 17.25V12M15.75 17.25v-6.75"/></symbol>
  <symbol id="chart-bar" viewBox="0 0 24 24"><path d="M3 3v18h18M7.5 16.5V12M12 16.5v-9M16.5 16.5V5.25"/></symbol>
  <symbol id="shield-check" viewBox="0 0 24 24"><path d="M9 12.75 11.25 15 15 9.75M12 2.25c2.22 1.5 4.91 2.355 7.5 2.625v5.25c0 5.372-3.446 9.687-7.5 11.625-4.054-1.938-7.5-6.253-7.5-11.625v-5.25C7.09 4.605 9.78 3.75 12 2.25Z"/></symbol>
  <symbol id="clock" viewBox="0 0 24 24"><path d="M12 6v6h4.5M21 12a9 9 0 1 1-9-9 9 9 0 0 1 9 9Z"/></symbol>
  <symbol id="magnifying-glass" viewBox="0 0 24 24"><path d="m21 21-4.35-4.35m0 0A7.5 7.5 0 1 0 6.045 6.045 7.5 7.5 0 0 0 16.65 16.65Z"/></symbol>
  <symbol id="bell" viewBox="0 0 24 24"><path d="M14.857 17.082a23.85 23.85 0 0 0 5.454-1.31A8.967 8.967 0 0 1 18 9.75V9A6 6 0 0 0 6 9v.75a8.967 8.967 0 0 1-2.311 6.022 23.85 23.85 0 0 0 5.454 1.31M14.857 17.082a3 3 0 0 1-5.714 0"/></symbol>
  <symbol id="chevron-down" viewBox="0 0 24 24"><path d="m19.5 8.25-7.5 7.5-7.5-7.5"/></symbol>
  <symbol id="chevron-right" viewBox="0 0 24 24"><path d="m9 18 6-6-6-6"/></symbol>
  <symbol id="funnel" viewBox="0 0 24 24"><path d="M12 3c2.755 0 5.455.232 8.083.678.533.09.917.556.917 1.096v.954c0 .742-.294 1.454-.819 1.979L14.5 13.39V19.5l-5 2v-8.11L3.819 7.707A2.798 2.798 0 0 1 3 5.728v-.954c0-.54.384-1.006.917-1.096A48.32 48.32 0 0 1 12 3Z"/></symbol>
  <symbol id="arrow-down-tray" viewBox="0 0 24 24"><path d="M3 16.5v2.25A2.25 2.25 0 0 0 5.25 21h13.5A2.25 2.25 0 0 0 21 18.75V16.5M7.5 10.5 12 15m0 0 4.5-4.5M12 15V3"/></symbol>
  <symbol id="printer" viewBox="0 0 24 24"><path d="M6.72 13.829c-.24.03-.48.062-.72.096m.72-.096a42.415 42.415 0 0 1 10.56 0m-10.56 0L6.34 18m10.94-4.171c.24.03.48.062.72.096m-.72-.096L17.66 18m0 0 .229 2.523a1.125 1.125 0 0 1-1.12 1.227H7.231c-.662 0-1.18-.568-1.12-1.227L6.34 18m11.319 0h1.091A2.25 2.25 0 0 0 21 15.75V9.456c0-1.081-.768-2.015-1.837-2.175a48.055 48.055 0 0 0-1.913-.247M6.34 18H5.25A2.25 2.25 0 0 1 3 15.75V9.456c0-1.081.768-2.015 1.837-2.175a48.041 48.041 0 0 1 1.913-.247m10.5 0V3.375c0-.621-.504-1.125-1.125-1.125h-8.25c-.621 0-1.125.504-1.125 1.125v3.659M18 10.5h.008v.008H18V10.5Zm-3 0h.008v.008H15V10.5Z"/></symbol>
  <symbol id="arrow-up-tray" viewBox="0 0 24 24"><path d="M3 16.5v2.25A2.25 2.25 0 0 0 5.25 21h13.5A2.25 2.25 0 0 0 21 18.75V16.5M16.5 7.5 12 3m0 0L7.5 7.5M12 3v12"/></symbol>
  <symbol id="photo" viewBox="0 0 24 24"><path d="m2.25 15.75 5.25-5.25 3 3 3.75-3.75 5.25 5.25M3.75 19.5h16.5a1.5 1.5 0 0 0 1.5-1.5V6a1.5 1.5 0 0 0-1.5-1.5H3.75A1.5 1.5 0 0 0 2.25 6v12a1.5 1.5 0 0 0 1.5 1.5ZM7.5 8.25h.008v.008H7.5V8.25Z"/></symbol>
  <symbol id="lock-closed" viewBox="0 0 24 24"><path d="M16.5 10.5V6.75a4.5 4.5 0 0 0-9 0v3.75m-.75 0h10.5A2.25 2.25 0 0 1 19.5 12.75v6A2.25 2.25 0 0 1 17.25 21H6.75A2.25 2.25 0 0 1 4.5 18.75v-6a2.25 2.25 0 0 1 2.25-2.25Z"/></symbol>
  <symbol id="eye" viewBox="0 0 24 24"><path d="M2.25 12S5.25 5.25 12 5.25 21.75 12 21.75 12 18.75 18.75 12 18.75 2.25 12 2.25 12Z"/><path d="M15 12a3 3 0 1 1-6 0 3 3 0 0 1 6 0Z"/></symbol>
  <symbol id="eye-slash" viewBox="0 0 24 24"><path d="M3 3l18 18M10.6 10.6A2 2 0 0 0 13.4 13.4M6.2 6.2C3.5 8.15 2.25 12 2.25 12S5.25 18.75 12 18.75c1.69 0 3.17-.42 4.43-1.05M9.7 5.55A9.8 9.8 0 0 1 12 5.25C18.75 5.25 21.75 12 21.75 12a14.08 14.08 0 0 1-2.1 3.2"/></symbol>
  <symbol id="arrow-trending-up" viewBox="0 0 24 24"><path d="M2.25 18 9 11.25l4.306 4.306a11.95 11.95 0 0 1 5.814-5.518L21.75 9m0 0v6.75M21.75 9H15"/></symbol>
  <symbol id="arrow-trending-down" viewBox="0 0 24 24"><path d="M2.25 6 9 12.75l4.306-4.306a11.95 11.95 0 0 0 5.814 5.518L21.75 15m0 0V8.25M21.75 15H15"/></symbol>
  <symbol id="check-circle" viewBox="0 0 24 24"><path d="M9 12.75 11.25 15 15 9.75M21 12a9 9 0 1 1-9-9 9 9 0 0 1 9 9Z"/></symbol>
  <symbol id="pencil" viewBox="0 0 24 24"><path d="m16.862 4.487 2.651 2.651M4.5 19.5l4.125-.938L19.5 7.688a2.25 2.25 0 0 0-3.182-3.182L5.443 15.375 4.5 19.5Z"/></symbol>
  <symbol id="trash" viewBox="0 0 24 24"><path d="m14.74 9-.346 9m-4.788 0L9.26 9m9.968-3.21c.342.052.682.107 1.022.166M4.772 5.79c.34-.059.68-.114 1.022-.166m0 0a48.11 48.11 0 0 1 8.412 0m-8.412 0L6.16 19.673A2.25 2.25 0 0 0 8.401 22h7.198a2.25 2.25 0 0 0 2.24-2.327L19.06 5.79M9.75 9h4.5m-4.5 0V6.75A1.75 1.75 0 0 1 11.5 5h1A1.75 1.75 0 0 1 14.25 6.75V9"/></symbol>
  <symbol id="arrow-right-start-on-rectangle" viewBox="0 0 24 24"><path d="M15.75 9V5.25A2.25 2.25 0 0 0 13.5 3h-6a2.25 2.25 0 0 0-2.25 2.25v13.5A2.25 2.25 0 0 0 7.5 21h6a2.25 2.25 0 0 0 2.25-2.25V15M12 9l3 3m0 0-3 3m3-3H2.25"/></symbol>
</svg>
